<svg width="1920" height="600" viewBox="0 0 1920 600" xmlns="http://www.w3.org/2000/svg">
  <defs>
    <linearGradient id="skyGradient" x1="0%" y1="0%" x2="0%" y2="100%">
      <stop offset="0%" style="stop-color:#1e3a8a;stop-opacity:1" />
      <stop offset="50%" style="stop-color:#1e40af;stop-opacity:1" />
      <stop offset="100%" style="stop-color:#1e293b;stop-opacity:1" />
    </linearGradient>
    <linearGradient id="mountainGradient" x1="0%" y1="0%" x2="0%" y2="100%">
      <stop offset="0%" style="stop-color:#64748b;stop-opacity:1" />
      <stop offset="100%" style="stop-color:#475569;stop-opacity:1" />
    </linearGradient>
    <linearGradient id="houseGradient" x1="0%" y1="0%" x2="0%" y2="100%">
      <stop offset="0%" style="stop-color:#f8fafc;stop-opacity:1" />
      <stop offset="100%" style="stop-color:#e2e8f0;stop-opacity:1" />
    </linearGradient>
  </defs>
  
  <!-- Sky Background -->
  <rect width="1920" height="600" fill="url(#skyGradient)" />
  
  <!-- Mountains in Background -->
  <path d="M0,400 L200,300 L400,320 L600,280 L800,300 L1000,260 L1200,280 L1400,250 L1600,270 L1800,290 L1920,280 L1920,600 L0,600 Z" fill="url(#mountainGradient)" opacity="0.6" />
  <path d="M0,450 L300,350 L600,370 L900,330 L1200,350 L1500,310 L1800,330 L1920,320 L1920,600 L0,600 Z" fill="url(#mountainGradient)" opacity="0.4" />
  
  <!-- Modern Townhomes -->
  <!-- House 1 -->
  <rect x="200" y="350" width="120" height="120" fill="url(#houseGradient)" stroke="#cbd5e1" stroke-width="2" />
  <rect x="220" y="380" width="25" height="35" fill="#1e40af" />
  <rect x="250" y="380" width="25" height="35" fill="#1e40af" />
  <rect x="280" y="380" width="25" height="35" fill="#1e40af" />
  <polygon points="200,350 260,300 320,350" fill="#ef4444" stroke="#dc2626" stroke-width="2" />
  
  <!-- House 2 -->
  <rect x="380" y="340" width="120" height="130" fill="url(#houseGradient)" stroke="#cbd5e1" stroke-width="2" />
  <rect x="400" y="370" width="25" height="35" fill="#1e40af" />
  <rect x="430" y="370" width="25" height="35" fill="#1e40af" />
  <rect x="460" y="370" width="25" height="35" fill="#1e40af" />
  <polygon points="380,340 440,290 500,340" fill="#059669" stroke="#047857" stroke-width="2" />
  
  <!-- House 3 -->
  <rect x="560" y="360" width="120" height="110" fill="url(#houseGradient)" stroke="#cbd5e1" stroke-width="2" />
  <rect x="580" y="390" width="25" height="35" fill="#1e40af" />
  <rect x="610" y="390" width="25" height="35" fill="#1e40af" />
  <rect x="640" y="390" width="25" height="35" fill="#1e40af" />
  <polygon points="560,360 620,310 680,360" fill="#7c3aed" stroke="#6d28d9" stroke-width="2" />
  
  <!-- House 4 -->
  <rect x="740" y="345" width="120" height="125" fill="url(#houseGradient)" stroke="#cbd5e1" stroke-width="2" />
  <rect x="760" y="375" width="25" height="35" fill="#1e40af" />
  <rect x="790" y="375" width="25" height="35" fill="#1e40af" />
  <rect x="820" y="375" width="25" height="35" fill="#1e40af" />
  <polygon points="740,345 800,295 860,345" fill="#dc2626" stroke="#b91c1c" stroke-width="2" />
  
  <!-- House 5 -->
  <rect x="920" y="355" width="120" height="115" fill="url(#houseGradient)" stroke="#cbd5e1" stroke-width="2" />
  <rect x="940" y="385" width="25" height="35" fill="#1e40af" />
  <rect x="970" y="385" width="25" height="35" fill="#1e40af" />
  <rect x="1000" y="385" width="25" height="35" fill="#1e40af" />
  <polygon points="920,355 980,305 1040,355" fill="#059669" stroke="#047857" stroke-width="2" />
  
  <!-- Driveways -->
  <rect x="200" y="470" width="120" height="30" fill="#6b7280" opacity="0.7" />
  <rect x="380" y="470" width="120" height="30" fill="#6b7280" opacity="0.7" />
  <rect x="560" y="470" width="120" height="30" fill="#6b7280" opacity="0.7" />
  <rect x="740" y="470" width="120" height="30" fill="#6b7280" opacity="0.7" />
  <rect x="920" y="470" width="120" height="30" fill="#6b7280" opacity="0.7" />
  
  <!-- Trees and Landscaping -->
  <circle cx="170" cy="480" r="15" fill="#059669" />
  <circle cx="350" cy="485" r="12" fill="#059669" />
  <circle cx="530" cy="475" r="18" fill="#059669" />
  <circle cx="710" cy="480" r="14" fill="#059669" />
  <circle cx="890" cy="485" r="16" fill="#059669" />
  <circle cx="1070" cy="480" r="13" fill="#059669" />
  
  <!-- Sun -->
  <circle cx="1600" cy="120" r="40" fill="#fbbf24" opacity="0.8" />
  
  <!-- Clouds -->
  <ellipse cx="1400" cy="100" rx="60" ry="25" fill="#f8fafc" opacity="0.8" />
  <ellipse cx="1350" cy="90" rx="40" ry="20" fill="#f8fafc" opacity="0.8" />
  <ellipse cx="1450" cy="90" rx="40" ry="20" fill="#f8fafc" opacity="0.8" />
  
  <ellipse cx="1700" cy="80" rx="50" ry="20" fill="#f8fafc" opacity="0.6" />
  <ellipse cx="1670" cy="75" rx="30" ry="15" fill="#f8fafc" opacity="0.6" />
  <ellipse cx="1730" cy="75" rx="30" ry="15" fill="#f8fafc" opacity="0.6" />
</svg>
